<?xml version="1.0" standalone="no"?>
<!DOCTYPE svg PUBLIC "-//W3C//DTD SVG 20010904//EN"
 "http://www.w3.org/TR/2001/REC-SVG-20010904/DTD/svg10.dtd">
<svg version="1.0" xmlns="http://www.w3.org/2000/svg"
 width="256.000000pt" height="256.000000pt" viewBox="0 0 256.000000 256.000000"
 preserveAspectRatio="xMidYMid meet">
<metadata>
Created by potrace 1.11, written by Peter Selinger 2001-2013
</metadata>
<g transform="translate(0.000000,256.000000) scale(0.100000,-0.100000)"
fill="#000000" stroke="none">
<path d="M1720 2223 c-141 -35 -269 -77 -305 -101 -64 -41 -241 -224 -269
-279 -28 -56 -82 -131 -133 -184 l-34 -36 -87 19 c-238 51 -322 52 -457 6
-174 -60 -297 -200 -344 -394 -16 -62 -19 -105 -16 -204 2 -69 6 -138 10 -155
3 -16 11 -50 16 -75 6 -25 13 -55 15 -67 9 -48 79 -243 120 -338 56 -127 79
-165 102 -165 10 0 24 -6 31 -12 10 -9 12 -9 7 -1 -5 9 2 9 26 2 18 -5 34 -9
36 -9 2 0 1 -4 -2 -8 -2 -4 5 -14 17 -21 18 -11 20 -11 9 0 -6 7 -12 20 -12
28 0 11 6 9 21 -8 20 -21 22 -21 40 -5 10 9 19 13 19 8 0 -9 20 -13 84 -18 22
-1 30 -7 33 -24 2 -16 -1 -21 -9 -16 -7 4 -8 3 -4 -5 10 -16 27 -3 24 17 -2
12 5 17 24 18 23 1 26 -2 18 -17 -15 -28 -12 -36 5 -12 12 18 22 21 57 17 24
-3 62 -6 84 -7 23 -1 49 -9 58 -16 13 -11 19 -12 29 -2 9 10 8 11 -4 6 -10 -4
-20 -2 -24 4 -4 7 6 11 27 10 52 -1 146 8 158 16 6 4 26 9 43 12 18 3 40 9 50
14 9 6 23 6 30 2 19 -12 45 -14 52 -4 3 5 0 13 -6 17 -7 4 -9 3 -5 -4 4 -7 -1
-10 -14 -9 -11 1 -20 4 -20 7 0 8 71 35 87 34 7 -1 11 1 9 5 -2 3 8 15 22 25
14 11 22 15 19 9 -4 -6 1 -17 11 -24 15 -12 16 -12 5 1 -14 18 -1 46 16 36 7
-4 9 -1 5 7 -3 9 8 25 30 42 20 15 45 42 57 61 11 19 25 32 30 29 5 -4 6 1 3
9 -3 9 -2 16 4 16 5 0 13 11 16 25 4 14 11 25 16 25 6 0 10 5 10 11 0 12 31
81 39 89 4 3 6 11 7 18 3 37 5 43 12 39 4 -3 8 9 9 27 4 44 8 64 16 72 4 4 7
2 7 -6 0 -9 4 -9 13 -2 20 17 113 20 109 4 -1 -8 2 -11 7 -7 6 3 8 11 5 18 -3
8 6 14 27 15 17 1 40 7 50 13 14 7 19 6 19 -3 0 -8 3 -9 8 -3 14 20 74 35 89
23 11 -9 13 -8 11 2 -3 14 86 43 115 36 9 -2 15 0 11 5 -3 5 8 9 25 9 16 0 33
5 36 10 5 8 11 8 20 0 9 -8 17 -1 31 27 10 21 19 40 20 43 15 59 30 100 37
100 5 0 7 7 3 15 -3 8 -2 15 2 15 4 0 8 8 9 18 1 9 6 35 12 57 65 230 83 477
47 634 -32 142 -114 267 -225 344 -101 70 -287 101 -411 70z m-1220 -2003 c0
-5 -2 -10 -4 -10 -3 0 -8 5 -11 10 -3 6 -1 10 4 10 6 0 11 -4 11 -10z"/>
<path d="M2370 1281 c0 -6 4 -13 10 -16 6 -3 7 1 4 9 -7 18 -14 21 -14 7z"/>
<path d="M2355 1200 c-3 -5 -1 -10 4 -10 6 0 11 5 11 10 0 6 -2 10 -4 10 -3 0
-8 -4 -11 -10z"/>
<path d="M1595 520 c-3 -5 -1 -10 4 -10 6 0 11 5 11 10 0 6 -2 10 -4 10 -3 0
-8 -4 -11 -10z"/>
<path d="M1491 407 c-13 -21 -12 -21 5 -5 10 10 16 20 13 22 -3 3 -11 -5 -18
-17z"/>
<path d="M1585 399 c-3 -4 2 -6 10 -5 21 3 28 13 10 13 -9 0 -18 -4 -20 -8z"/>
<path d="M1693 385 c0 -8 4 -12 9 -9 5 3 6 10 3 15 -9 13 -12 11 -12 -6z"/>
<path d="M1453 353 c0 -10 4 -10 16 -1 9 7 18 13 20 15 2 1 -5 1 -16 0 -11 0
-20 -7 -20 -14z"/>
<path d="M1481 337 c-10 -13 -8 -54 4 -66 4 -3 4 8 1 24 -3 16 0 35 6 42 6 7
8 13 5 13 -2 0 -9 -6 -16 -13z"/>
<path d="M1573 325 c0 -8 4 -12 9 -9 5 3 6 10 3 15 -9 13 -12 11 -12 -6z"/>
<path d="M1410 278 c0 -4 4 -8 9 -8 6 0 12 4 15 8 3 5 -1 9 -9 9 -8 0 -15 -4
-15 -9z"/>
<path d="M1333 265 c0 -8 4 -12 9 -9 5 3 6 10 3 15 -9 13 -12 11 -12 -6z"/>
<path d="M1390 240 c0 -5 5 -10 11 -10 5 0 7 5 4 10 -3 6 -8 10 -11 10 -2 0
-4 -4 -4 -10z"/>
<path d="M1486 238 c3 -5 10 -6 15 -3 13 9 11 12 -6 12 -8 0 -12 -4 -9 -9z"/>
<path d="M380 220 c-8 -5 -10 -10 -5 -10 6 0 17 5 25 10 8 5 11 10 5 10 -5 0
-17 -5 -25 -10z"/>
<path d="M1296 217 c3 -10 9 -15 12 -12 3 3 0 11 -7 18 -10 9 -11 8 -5 -6z"/>
<path d="M1422 204 c10 -10 20 -16 22 -13 3 3 -5 11 -17 18 -21 13 -21 12 -5
-5z"/>
<path d="M515 200 c-3 -5 -1 -10 4 -10 6 0 11 5 11 10 0 6 -2 10 -4 10 -3 0
-8 -4 -11 -10z"/>
<path d="M540 201 c0 -11 4 -13 43 -14 12 -1 25 -5 28 -9 3 -5 11 -3 17 4 8
11 3 13 -26 13 -20 -1 -43 3 -49 8 -9 6 -13 5 -13 -2z"/>
<path d="M1176 196 c5 -13 4 -17 -4 -12 -15 9 -26 -14 -13 -27 9 -9 10 -7 5 7
-5 13 -4 17 4 12 15 -9 26 14 13 27 -9 9 -10 7 -5 -7z"/>
<path d="M1270 199 c0 -5 5 -7 10 -4 6 3 10 8 10 11 0 2 -4 4 -10 4 -5 0 -10
-5 -10 -11z"/>
<path d="M1330 200 c0 -5 5 -10 11 -10 5 0 7 5 4 10 -3 6 -8 10 -11 10 -2 0
-4 -4 -4 -10z"/>
<path d="M433 185 c0 -8 4 -12 9 -9 5 3 6 10 3 15 -9 13 -12 11 -12 -6z"/>
<path d="M1100 185 c-7 -9 -8 -15 -2 -15 5 0 12 7 16 15 3 8 4 15 2 15 -2 0
-9 -7 -16 -15z"/>
<path d="M1221 196 c2 -2 15 -9 29 -15 24 -11 24 -11 6 3 -16 13 -49 24 -35
12z"/>
<path d="M490 180 c0 -5 5 -10 11 -10 5 0 7 5 4 10 -3 6 -8 10 -11 10 -2 0 -4
-4 -4 -10z"/>
<path d="M670 179 c0 -5 5 -7 10 -4 6 3 10 8 10 11 0 2 -4 4 -10 4 -5 0 -10
-5 -10 -11z"/>
<path d="M1191 167 c-13 -21 -12 -21 5 -5 10 10 16 20 13 22 -3 3 -11 -5 -18
-17z"/>
<path d="M753 165 c0 -8 4 -15 9 -15 4 0 8 4 8 9 0 6 -4 12 -8 15 -5 3 -9 -1
-9 -9z"/>
<path d="M976 172 c-2 -4 -1 -14 5 -22 6 -11 9 -12 9 -2 0 8 5 10 13 6 8 -5 8
-2 -2 9 -15 19 -18 20 -25 9z"/>
<path d="M1064 171 c7 -11 46 -35 46 -28 0 3 -12 12 -26 22 -15 9 -23 12 -20
6z"/>
<path d="M715 159 c-11 -16 -1 -19 13 -3 7 8 8 14 3 14 -5 0 -13 -5 -16 -11z"/>
<path d="M781 167 c2 -1 13 -9 24 -17 19 -14 19 -14 6 3 -7 9 -18 17 -24 17
-6 0 -8 -1 -6 -3z"/>
<path d="M850 160 c0 -4 14 -13 30 -19 17 -5 30 -8 30 -6 0 2 -13 10 -30 19
-16 8 -30 11 -30 6z"/>
<path d="M1031 167 c2 -1 13 -9 24 -17 19 -14 19 -14 6 3 -7 9 -18 17 -24 17
-6 0 -8 -1 -6 -3z"/>
<path d="M1235 160 c-3 -5 -1 -10 4 -10 6 0 11 5 11 10 0 6 -2 10 -4 10 -3 0
-8 -4 -11 -10z"/>
<path d="M1344 162 c4 -3 14 -7 22 -8 9 -1 13 0 10 4 -4 3 -14 7 -22 8 -9 1
-13 0 -10 -4z"/>
<path d="M775 140 c-3 -5 -1 -10 4 -10 6 0 11 5 11 10 0 6 -2 10 -4 10 -3 0
-8 -4 -11 -10z"/>
<path d="M948 143 c7 -3 16 -2 19 1 4 3 -2 6 -13 5 -11 0 -14 -3 -6 -6z"/>
<path d="M1147 139 c7 -7 15 -10 18 -7 3 3 -2 9 -12 12 -14 6 -15 5 -6 -5z"/>
<path d="M1010 136 c0 -2 8 -10 18 -17 15 -13 16 -12 3 4 -13 16 -21 21 -21
13z"/>
<path d="M930 119 c0 -5 5 -7 10 -4 6 3 10 8 10 11 0 2 -4 4 -10 4 -5 0 -10
-5 -10 -11z"/>
</g>
</svg>
